Coordinates
version=1
nRows=12
nColumns=46
inDegrees=yes

Units are S.I. units (second, meters, Newtons, ...)
Angles are in degrees.

endheader
time	pelvis_tilt	pelvis_list	pelvis_rotation	pelvis_tx	pelvis_ty	pelvis_tz	bb_angle	bb_tx	bb_ty	bb_tz	hip_flexion_r	hip_adduction_r	hip_rotation_r	knee_angle_r	knee_angle_r_beta	ankle_angle_r	subtalar_angle_r	mtp_angle_r	crank_angle_r	hip_flexion_l	hip_adduction_l	hip_rotation_l	knee_angle_l	knee_angle_l_beta	ankle_angle_l	subtalar_angle_l	mtp_angle_l	crank_angle_l	lumbar_extension	lumbar_bending	lumbar_rotation	arm_flex_r	arm_add_r	arm_rot_r	elbow_flex_r	pro_sup_r	wrist_flex_r	wrist_dev_r	arm_flex_l	arm_add_l	arm_rot_l	elbow_flex_l	pro_sup_l	wrist_flex_l	wrist_dev_l
      2.50500000	     -2.34884304	     -6.29886624	     -1.09840290	      0.06084798	      1.18419421	     -0.25026372	      0.00000000	      0.50000000	      0.00000000	      0.25000000	     74.69255218	      2.54402447	      3.22746777	    109.72104514	      1.91499350	    -10.50296137	     -6.25377182	      0.00000000	      0.00000000	     23.76581619	    -11.76731410	     -8.26244227	     26.62712484	      0.46473100	     -3.96921162	     12.82455945	      0.00000000	      0.00000000	    -64.84174892	      7.65694012	      3.97504165	     89.62897417	     -5.71509416	     44.74673126	     35.06503511	     37.23534341	      0.00000000	      0.00000000	     87.48911498	    -18.86542597	     55.95568125	     35.78627352	     32.91812109	      0.00000000	      0.00000000
      2.51000000	     -2.43662193	     -6.66240668	     -1.47488388	      0.06067515	      1.18502655	     -0.25085577	      0.00000000	      0.50000000	      0.00000000	      0.25000000	     75.27942446	      3.02453849	      3.08427479	    109.39980230	      1.90938675	     -9.94084067	     -6.11545867	      0.00000000	      0.00000000	     23.51748580	    -12.15770776	     -8.21066146	     27.03521038	      0.47185344	     -4.19140951	     12.07025378	      0.00000000	      0.00000000	    -64.88829221	      7.92168832	      4.36453691	     89.64942953	     -5.39526940	     44.70853394	     35.27711465	     37.14872179	      0.00000000	      0.00000000	     87.38058737	    -19.22475865	     55.90306964	     35.61654231	     32.93779132	      0.00000000	      0.00000000
      2.51500000	     -2.75960986	     -6.91298695	     -1.59334621	      0.06000296	      1.18546773	     -0.25203903	      0.00000000	      0.50000000	      0.00000000	      0.25000000	     76.06786085	      3.12096283	      2.99939601	    108.96913542	      1.90187020	     -9.39751293	     -5.58415480	      0.00000000	      0.00000000	     23.85738636	    -12.12715722	     -7.11695179	     28.02320630	      0.48909722	     -4.29989530	      8.32135169	      0.00000000	      0.00000000	    -64.70861861	      8.45601466	      4.45321926	     89.66652565	     -4.78537498	     44.25430942	     35.42633981	     36.66820372	      0.00000000	      0.00000000	     87.25539347	    -19.84883671	     55.65832917	     35.73691873	     33.14462606	      0.00000000	      0.00000000
      2.52000000	     -2.96126563	     -7.22678348	     -1.88527639	      0.05937228	      1.18611859	     -0.25261179	      0.00000000	      0.50000000	      0.00000000	      0.25000000	     76.61631383	      3.52293999	      2.87535859	    108.43481714	      1.89254458	     -8.74001022	     -5.42260304	      0.00000000	      0.00000000	     24.06417590	    -12.35200748	     -6.50660193	     28.92290573	      0.50479993	     -4.54586200	      6.88549163	      0.00000000	      0.00000000	    -64.71696179	      8.81196194	      4.49874131	     89.68572023	     -3.89195649	     43.52195439	     35.51425723	     35.86011086	      0.00000000	      0.00000000	     87.12411460	    -20.85177451	     55.34068869	     36.34840870	     33.55371983	      0.00000000	      0.00000000
      2.52500000	     -2.90204613	     -7.39582183	     -2.36494002	      0.05869923	      1.18713558	     -0.25260624	      0.00000000	      0.50000000	      0.00000000	      0.25000000	     76.83709211	      4.12176314	      2.93939980	    107.81940803	      1.88180367	     -8.13929854	     -5.48482417	      0.00000000	      0.00000000	     24.00865984	    -12.58280746	     -6.25002240	     29.97380250	      0.52314154	     -4.77279623	      6.03687171	      0.00000000	      0.00000000	    -64.95940510	      8.74434870	      4.73771266	     89.70623647	     -3.58582413	     43.46818902	     35.66933169	     35.79611074	      0.00000000	      0.00000000	     87.22706298	    -21.20274806	     55.22136220	     36.27227013	     33.56115863	      0.00000000	      0.00000000
      2.53000000	     -3.22349450	     -7.81552946	     -2.63276130	      0.05779543	      1.18758664	     -0.25301809	      0.00000000	      0.50000000	      0.00000000	      0.25000000	     77.31953748	      4.49082507	      2.70275700	    106.95532845	      1.86672263	     -7.25197694	     -4.84370794	      0.00000000	      0.00000000	     24.69377035	    -12.87383435	     -5.34353500	     31.40141688	      0.54805811	     -5.15003485	      3.87600156	      0.00000000	      0.00000000	    -64.98404788	      9.28661615	      4.53881413	     89.72047733	     -1.92711458	     41.90820174	     35.85688394	     33.85134019	      0.00000000	      0.00000000	     86.86824533	    -23.01727289	     54.27245733	     37.84950522	     34.49997390	      0.00000000	      0.00000000
      2.53500000	     -3.42739006	     -8.15662772	     -2.98513055	      0.05678161	      1.18800673	     -0.25301142	      0.00000000	      0.50000000	      0.00000000	      0.25000000	     77.62616367	      4.99671793	      2.51754994	    106.06858979	      1.85124612	     -6.57767734	     -4.67913269	      0.00000000	      0.00000000	     25.37098815	    -13.17284033	     -4.57752467	     33.09888237	      0.57768448	     -5.43133325	      2.31345909	      0.00000000	      0.00000000	    -65.03944106	      9.42991923	      4.90670146	     89.73520882	     -1.67444533	     41.81785726	     36.24217586	     33.52409969	      0.00000000	      0.00000000	     86.96210416	    -23.40054157	     54.12188698	     37.90181139	     34.64841319	      0.00000000	      0.00000000
      2.54000000	     -3.48078214	     -8.44245434	     -3.47663577	      0.05573145	      1.18865537	     -0.25273295	      0.00000000	      0.50000000	      0.00000000	      0.25000000	     77.64848131	      5.65306274	      2.43580938	    105.04608155	      1.83339999	     -5.84882055	     -4.68772843	      0.00000000	      0.00000000	     25.92234508	    -13.49202589	     -4.01046225	     34.92404137	      0.60953951	     -5.71615653	      0.73022052	      0.00000000	      0.00000000	    -65.28181794	      9.41965719	      5.17720762	     89.75125221	     -1.26194862	     41.71991458	     36.58156762	     33.36115374	      0.00000000	      0.00000000	     87.10590024	    -23.92887476	     53.95326947	     37.96272029	     34.72283355	      0.00000000	      0.00000000
      2.54500000	     -3.68305837	     -8.64641533	     -3.76469766	      0.05448676	      1.18877890	     -0.25286198	      0.00000000	      0.50000000	      0.00000000	      0.25000000	     77.75217534	      6.00467853	      2.38119233	    103.95903370	      1.81442743	     -4.93786491	     -4.30815884	      0.00000000	      0.00000000	     26.86471561	    -13.54151245	     -3.02962629	     36.97470437	      0.64533033	     -6.30662040	     -1.14470654	      0.00000000	      0.00000000	    -65.37751629	      9.62806366	      4.97901371	     89.76456453	     -0.28828263	     41.09138960	     36.70908073	     33.06303012	      0.00000000	      0.00000000	     86.82299890	    -25.16202791	     52.57883749	     39.21414961	     35.87426181	      0.00000000	      0.00000000
      2.55000000	     -3.80431808	     -8.86249583	     -4.20983190	      0.05322704	      1.18900706	     -0.25259894	      0.00000000	      0.50000000	      0.00000000	      0.25000000	     77.63692150	      6.58751981	      2.37951245	    102.79159125	      1.79405171	     -3.80941450	     -4.07714839	      0.00000000	      0.00000000	     27.73322568	    -13.71328711	     -2.32815760	     39.11045011	      0.68260613	     -6.80907872	     -2.83098838	      0.00000000	      0.00000000	    -65.57813974	      9.65274497	      4.95741747	     89.77874934	      0.51786194	     40.73656866	     36.90906962	     32.82443411	      0.00000000	      0.00000000	     86.77267367	    -26.14721994	     51.83060501	     39.87994320	     36.87231453	      0.00000000	      0.00000000
      2.55500000	     -3.93682347	     -9.06517120	     -4.58986279	      0.05191306	      1.18907828	     -0.25254690	      0.00000000	      0.50000000	      0.00000000	      0.25000000	     77.40651033	      7.07125230	      2.39053527	    101.53909937	      1.77219160	     -2.47769340	     -3.80659371	      0.00000000	      0.00000000	     28.68845612	    -13.76439548	     -1.45532495	     41.30988860	      0.72099357	     -7.35866382	     -4.49147628	      0.00000000	      0.00000000	    -65.81850815	      9.64196092	      4.98172988	     89.78694331	      0.99598353	     40.27510465	     37.55564931	     32.64513202	      0.00000000	      0.00000000	     87.08619603	    -27.26635390	     52.20450320	     40.45672916	     38.73994180	      0.00000000	      0.00000000
      2.56000000	     -4.06714678	     -9.17446382	     -5.04965259	      0.05053315	      1.18900105	     -0.25242901	      0.00000000	      0.50000000	      0.00000000	      0.25000000	     77.05140151	      7.58200614	      2.51198201	    100.18958433	      1.74863812	     -0.99030911	     -3.56308622	      0.00000000	      0.00000000	     29.65798664	    -13.73662190	     -0.68823559	     43.57695332	      0.76056131	     -7.86616696	     -5.97838867	      0.00000000	      0.00000000	    -66.00761950	      9.55631119	      4.87133918	     89.79898330	      1.69899692	     39.96794680	     37.76225093	     32.77313514	      0.00000000	      0.00000000	     87.01585492	    -28.15087599	     51.14440841	     41.07187176	     39.83928820	      0.00000000	      0.00000000
